HIERARCHY
ROOT Hips
{
     OFFSET 21.32450 98.35000 -43.54270
     CHANNELS 6 Xposition Yposition Zposition Zrotation Xrotation Yrotation
     JOINT Spine
     {
          OFFSET 0.00000 11.89050 0.00000
          CHANNELS 3 Zrotation Xrotation Yrotation
          JOINT Spine1
          {
               OFFSET 0.00000 25.65740 0.12766
               CHANNELS 3 Zrotation Xrotation Yrotation
               JOINT HEad
               {
                    OFFSET 0.00000 8.73416 0.01134
                    CHANNELS 3 Zrotation Xrotation Yrotation
                    End Site
                    {
                         OFFSET -0.29000 12.77420 2.51395
                    }
               }
               JOINT LeftShoulder1
               {
                    OFFSET 8.99000 -0.36225 -0.22000
                    CHANNELS 3 Zrotation Xrotation Yrotation
                    JOINT LeftArm
                    {
                         OFFSET 10.28270 -0.00338 0.32212
                         CHANNELS 3 Zrotation Xrotation Yrotation
                         JOINT LeftForeArm
                         {
                              OFFSET 32.76690 0.09914 -1.42434
                              CHANNELS 3 Zrotation Xrotation Yrotation
                              JOINT LeftHand
                              {
                                   OFFSET 27.56430 0.08536 1.02216
                                   CHANNELS 3 Zrotation Xrotation Yrotation
                                   End Site
                                   {
                                        OFFSET 16.74430 -0.60000 1.50291
                                   }
                              }
                         }
                    }
               }
               JOINT RightShoulder
               {
                    OFFSET -8.99000 -0.36225 -0.22000
                    CHANNELS 3 Zrotation Xrotation Yrotation
                    JOINT RightArm
                    {
                         OFFSET -10.28270 -0.00338 0.32212
                         CHANNELS 3 Zrotation Xrotation Yrotation
                         JOINT RightForeArm
                         {
                              OFFSET -32.89710 0.09914 -1.42434
                              CHANNELS 3 Zrotation Xrotation Yrotation
                              JOINT RightHand
                              {
                                   OFFSET -27.49210 0.08536 1.02216
                                   CHANNELS 3 Zrotation Xrotation Yrotation
                                   End Site
                                   {
                                        OFFSET -16.63120 -0.60000 1.50291
                                   }
                              }
                         }
                    }
               }
          }
     }
     JOINT LeftUpLeg
     {
          OFFSET 8.94580 -8.66707 0.10165
          CHANNELS 3 Zrotation Xrotation Yrotation
          JOINT LeftLeg
          {
               OFFSET 0.00000 -44.42270 1.37270
               CHANNELS 3 Zrotation Xrotation Yrotation
               JOINT LeftFoot
               {
                    OFFSET -0.25355 -42.09240 -1.46059
                    CHANNELS 3 Zrotation Xrotation Yrotation
                    JOINT LeftToes
                    {
                         OFFSET -0.04000 -4.41509 8.49910
                         CHANNELS 3 Zrotation Xrotation Yrotation
                         End Site
                         {
                              OFFSET 0.08000 -0.04745 9.77979
                         }
                    }
               }
          }
     }
     JOINT RightUpLeg
     {
          OFFSET -8.94580 -8.66707 0.10165
          CHANNELS 3 Zrotation Xrotation Yrotation
          JOINT RightLeg
          {
               OFFSET 0.00000 -44.42270 1.37270
               CHANNELS 3 Zrotation Xrotation Yrotation
               JOINT RightFoot
               {
                    OFFSET 0.25355 -42.09240 -1.46059
                    CHANNELS 3 Zrotation Xrotation Yrotation
                    JOINT RightToes
                    {
                         OFFSET 0.04000 -4.41509 8.49910
                         CHANNELS 3 Zrotation Xrotation Yrotation
                         End Site
                         {
                              OFFSET -0.08000 -0.13745 9.77979
                         }
                    }
               }
          }
     }
}
MOTION
Frames: 14
Frame Time: 0.01667
21.32450 98.35000 -43.54270 -7.04590 -8.79209 -26.82610 5.54901 5.93197 0.18676 3.27110 12.42870 1.12888 -9.26127 15.03200 6.18746 0.00000 0.00000 0.00000 -98.77360 -36.66880 -57.49440 -0.49581 36.43690 -93.68960 11.83750 9.29704 -1.92564 15.37990 1.36373 5.01680 65.15110 -2.55738 68.49070 10.58380 14.85680 68.00500 6.80071 11.32450 17.42690 18.19660 -10.65850 3.21961 -7.88260 21.43920 12.34220 -8.03962 -1.34722 0.43685 -13.50720 -15.97710 -5.75673 -7.38093 -0.00309 -4.24345 3.62773 31.15820 -4.75874 13.80080 -28.81940 2.36159 11.06170 33.63650 -17.44730 
21.42930 98.32100 -43.52410 -7.19893 -8.58927 -27.09460 5.72642 5.93471 0.24599 3.35323 12.46250 1.23482 -9.70080 16.64810 6.09544 0.00000 0.00000 0.00000 -99.92580 -36.48190 -58.44430 -1.97431 36.88640 -93.26750 10.12710 9.28575 -3.20276 14.97090 1.37199 5.20582 66.01490 -1.99785 68.90610 12.68430 13.85190 67.52550 7.76606 11.56680 18.21500 18.14270 -10.24440 3.03804 -7.53964 19.73010 11.39140 -8.68311 -1.34388 0.47276 -11.72200 -13.73450 -5.43126 -7.37741 -0.29586 -4.32723 3.73598 31.33110 -4.59094 14.32470 -28.68560 2.44672 11.11050 33.88680 -17.19340 
21.57080 98.28230 -43.49480 -7.38301 -8.38617 -27.41000 5.79742 5.96955 0.29351 3.41594 12.54150 1.30877 -10.05120 18.54470 5.87718 0.00000 0.00000 0.00000 -101.37500 -35.95050 -59.74120 -3.65729 37.38090 -92.74980 8.40166 9.30087 -4.66548 14.72880 1.41217 5.52374 67.11860 -1.16959 69.37900 15.69590 12.41810 66.92220 9.20197 11.93690 19.20970 18.16370 -9.83314 2.84942 -7.31415 18.33410 11.11240 -8.85669 -0.91958 0.51258 -9.52146 -10.81220 -5.30293 -7.42506 -0.64033 -4.49054 3.88050 31.56780 -4.36691 14.84290 -28.31100 2.49690 10.97850 33.87230 -16.64190 
21.74830 98.23390 -43.45670 -7.56479 -8.18426 -27.81580 5.75928 6.03511 0.34493 3.44578 12.66270 1.38470 -10.33230 20.66660 5.55807 0.00000 0.00000 0.00000 -103.05100 -34.95720 -61.33310 -5.54205 37.78560 -92.06060 6.53407 9.35943 -6.38321 14.63150 1.48394 5.97421 68.54160 -0.04603 69.85740 19.55650 10.58800 66.34580 11.23040 12.46880 20.28260 18.23390 -9.38886 2.73752 -7.17845 17.15910 11.34600 -8.57611 -0.21721 0.54418 -7.20497 -7.64618 -5.39568 -7.57884 -1.09923 -4.72232 4.06368 31.95630 -4.00378 15.44590 -27.79280 2.53922 10.75260 33.70990 -15.94110 
21.96340 98.17270 -43.42290 -7.70566 -7.96519 -28.33750 5.60553 6.11068 0.42786 3.42380 12.78580 1.51208 -10.60910 22.99710 5.17701 0.00000 0.00000 0.00000 -104.80800 -33.43610 -63.06820 -7.49500 37.99010 -91.28760 4.32256 9.50724 -8.19712 14.66090 1.57850 6.50603 70.32790 1.32644 70.27070 23.91720 8.59727 65.99020 13.81230 13.14890 21.22590 18.31590 -8.96472 2.79986 -7.09060 16.17830 11.83920 -7.94808 0.59061 0.55414 -5.14204 -4.83459 -5.55671 -7.88430 -1.75560 -4.95970 4.31828 32.57260 -3.47707 16.21150 -27.22860 2.59862 10.50900 33.46900 -15.28830 
22.21830 98.09430 -43.41530 -7.76281 -7.71062 -28.95690 5.32612 6.18045 0.55648 3.33019 12.88190 1.71039 -11.00420 25.49850 4.84281 0.00000 0.00000 0.00000 -106.53800 -31.43590 -64.82260 -9.27980 37.98580 -90.62660 1.64477 9.78380 -9.80681 14.77910 1.68397 7.05789 72.46840 2.84145 70.61350 28.22100 6.82472 65.96890 16.67980 13.89640 21.87810 18.35680 -8.71634 3.08174 -7.01168 15.50160 12.38330 -7.15429 1.33335 0.53844 -3.58378 -2.78838 -5.56371 -8.37779 -2.67461 -5.12944 4.68274 33.45220 -2.81873 17.20280 -26.64450 2.68682 10.21700 33.02490 -14.76210 
22.51220 97.98450 -43.45400 -7.73155 -7.44458 -29.60880 4.93522 6.26056 0.71284 3.16616 12.98930 1.94465 -11.57120 28.04050 4.70070 0.00000 0.00000 0.00000 -108.20500 -29.07490 -66.56240 -10.67370 37.82050 -90.21800 -1.48151 10.18790 -10.98630 14.94610 1.79380 7.60397 74.85980 4.40764 70.96330 31.96690 5.56284 66.25020 19.44180 14.60400 22.24370 18.32390 -8.79934 3.55027 -6.91454 15.32120 12.86240 -6.40927 1.92920 0.50937 -2.68228 -1.72350 -5.27456 -9.06252 -3.83724 -5.22490 5.14470 34.60700 -2.04069 18.44320 -26.02200 2.80067 9.74597 32.08580 -14.26920 
22.83260 97.82120 -43.54780 -7.66959 -7.23243 -30.19910 4.48862 6.38950 0.85921 2.96644 13.19400 2.15342 -12.19910 30.48340 4.81530 0.00000 0.00000 0.00000 -109.78000 -26.47240 -68.26430 -11.56690 37.51980 -90.07510 -4.89583 10.67420 -11.69480 15.17040 1.91083 8.15187 77.31160 5.98846 71.38460 34.96500 4.86107 66.71710 21.85760 15.21280 22.42420 18.25640 -9.24889 4.11526 -6.82017 15.75360 13.21110 -5.85983 2.38991 0.48395 -2.48011 -1.70271 -4.62673 -9.88477 -5.11204 -5.27650 5.65540 36.02600 -1.15158 19.85450 -25.40080 2.92912 8.98125 30.38560 -13.67720 
23.15240 97.59250 -43.69420 -7.64835 -7.13206 -30.63250 4.05983 6.58993 0.96542 2.77636 13.54920 2.29361 -12.71530 32.74720 5.15031 0.00000 0.00000 0.00000 -111.19200 -23.74270 -69.83730 -12.01990 37.08650 -90.10410 -8.29811 11.17500 -12.06350 15.48950 2.03980 8.70319 79.63610 7.57033 71.83870 37.33630 4.59967 67.25980 23.95420 15.72030 22.44600 18.24020 -9.96839 4.67359 -6.80334 16.74040 13.37630 -5.52567 2.70404 0.46777 -2.78423 -2.47734 -3.66996 -10.76590 -6.31253 -5.28106 6.19249 37.65000 -0.25902 21.23430 -24.91740 3.06364 7.93178 27.87650 -12.96740 
23.44180 97.30720 -43.88290 -7.70290 -7.15302 -30.83720 3.71841 6.84570 1.02133 2.62625 14.02780 2.35934 -12.99290 34.72690 5.60817 0.00000 0.00000 0.00000 -112.36000 -21.00470 -71.14100 -12.24410 36.53390 -90.15330 -11.33500 11.63290 -12.30740 15.90180 2.17488 9.21955 81.72540 9.10624 72.21130 39.23820 4.66914 67.80540 25.83040 16.12680 22.25330 18.34270 -10.80730 5.18649 -6.91494 18.07110 13.31930 -5.36987 2.86801 0.46031 -3.33047 -3.61986 -2.68651 -11.64110 -7.29206 -5.21727 6.76060 39.39260 0.38637 22.32140 -24.71950 3.19877 6.74988 24.83280 -12.27520 
23.68200 96.98510 -44.10210 -7.83175 -7.25734 -30.77970 3.53382 7.11390 1.02880 2.52467 14.54940 2.37039 -13.00030 36.25470 6.06278 0.00000 0.00000 0.00000 -113.25200 -18.37970 -72.05300 -12.46930 35.89880 -90.09850 -13.77070 12.02370 -12.60450 16.35900 2.30102 9.64317 83.53180 10.48470 72.42160 40.65470 5.03331 68.30590 27.46880 16.40930 21.81310 18.58800 -11.64290 5.71903 -7.12146 19.48550 13.02040 -5.37444 3.00950 0.46647 -4.08961 -4.90882 -2.13690 -12.47190 -7.99424 -5.06014 7.39473 41.19180 0.39010 22.84140 -24.86960 3.31348 5.66591 21.81630 -11.86100 
23.86590 96.64500 -44.34490 -8.01723 -7.39899 -30.46560 3.55243 7.35987 0.99202 2.45705 15.05130 2.35168 -12.87920 37.17180 6.44071 0.00000 0.00000 0.00000 -113.89800 -15.99510 -72.52860 -12.80420 35.25120 -89.92060 -15.55870 12.34630 -13.00870 16.80180 2.40461 9.93993 85.02130 11.57610 72.48480 41.51660 5.65819 68.73440 28.78260 16.54990 21.16750 18.95750 -12.41990 6.37742 -7.32939 20.80340 12.45070 -5.53533 3.28883 0.49319 -5.13361 -6.29459 -2.30008 -13.24850 -8.41833 -4.76021 8.18695 42.99990 -0.70038 22.54060 -25.30380 3.35477 4.86849 19.42750 -11.98130 
23.99110 96.29810 -44.61140 -8.23685 -7.56107 -29.92710 3.76053 7.57818 0.91439 2.39703 15.52780 2.31533 -12.82480 37.42510 6.71407 0.00000 0.00000 0.00000 -114.37400 -13.99830 -72.60850 -13.23660 34.70860 -89.68930 -16.74520 12.59880 -13.47820 17.17480 2.47897 10.11490 86.17210 12.31750 72.46740 41.87890 6.46950 69.08540 29.70190 16.57080 20.46300 19.38630 -13.14070 7.21008 -7.42769 21.98090 11.56750 -5.84789 3.74111 0.54328 -6.36725 -7.65949 -3.04128 -13.98070 -8.55955 -4.26923 9.22778 44.73750 -3.11664 21.32900 -25.84550 3.26042 4.43536 18.01870 -12.68970 
24.05520 95.94800 -44.90740 -8.46304 -7.75491 -29.21630 4.09195 7.78244 0.80143 2.33137 16.00630 2.26019 -12.85410 37.17250 6.80786 0.00000 0.00000 0.00000 -114.79900 -12.54040 -72.37270 -13.75140 34.41070 -89.46780 -17.39360 12.77870 -13.96930 17.42950 2.52447 10.20440 86.99250 12.72700 72.41210 41.92660 7.36486 69.36180 30.22880 16.52500 19.86950 19.77870 -13.83170 8.16700 -7.31963 23.05600 10.36880 -6.28239 4.28603 0.61293 -7.58380 -8.85710 -4.00303 -14.67300 -8.40668 -3.57523 10.49640 46.30200 -6.58498 19.42780 -26.28110 3.01499 4.38493 17.69910 -13.80340 
